<svg id="图层_2" xmlns="http://www.w3.org/2000/svg" viewBox="0 0 239.9 90.4"><style>.st0{fill:#536d6d}.st1{fill:#a4d128}</style><g id="XMLID_5_"><g id="XMLID_6_"><g id="XMLID_149_"><path id="XMLID_175_" class="st0" d="M8.5 18.9L26 67.1h-8.5L0 18.9h8.5z"/></g></g></g><g id="XMLID_12_"><g id="XMLID_13_"><g id="XMLID_140_"><path id="XMLID_145_" class="st0" d="M43.5 18.9L26 67.1h-8.5L35 18.9z"/></g></g></g><g id="XMLID_28_"><g id="XMLID_29_"><g id="XMLID_125_"><path id="XMLID_139_" class="st0" d="M43.5 18.9L61 67.1h-8.5L35 18.9z"/></g></g></g><g id="XMLID_20_"><g id="XMLID_21_"><g id="XMLID_112_"><path id="XMLID_123_" class="st0" d="M78.5 18.9L61 67.1h-8.6l17.5-48.2z"/></g></g></g><g id="XMLID_36_"><g id="XMLID_37_"><g id="XMLID_99_"><path id="XMLID_107_" class="st1" d="M79.1 36.5l10.2 28-7.6 2.8-6.9-19.1z"/></g></g></g><g id="XMLID_44_"><g id="XMLID_45_"><g id="XMLID_90_"><path id="XMLID_98_" class="st1" d="M107.7 19L81.8 90.3h-8.6l26-71.3z"/></g></g></g><g id="XMLID_53_"><g id="XMLID_54_"><g id="XMLID_76_"><path id="XMLID_83_" class="st0" d="M148.8 18.9h-32.5l-2.9 8.1 32.5-.1z"/></g></g></g><g id="XMLID_61_"><g id="XMLID_62_"><g id="XMLID_67_"><path id="XMLID_75_" class="st0" d="M143.6 0l-24.5 67.2h-8.5L135 0z"/></g></g></g><g id="XMLID_69_"><g id="XMLID_70_"><g id="XMLID_58_"><path id="XMLID_66_" class="st1" d="M166.2 19l-17.6 48.2h-8.5L157.6 19z"/></g></g></g><g id="XMLID_77_"><g id="XMLID_78_"><g id="XMLID_49_"><path id="XMLID_51_" class="st0" d="M185.6 19.9l-17.2 47.3h-8.5L177.4 19h5.8z"/></g></g></g><g id="XMLID_85_"><g id="XMLID_86_"><g id="XMLID_33_"><path id="XMLID_41_" class="st0" d="M186.4 19l17.5 48.2h-8.5L177.8 19z"/></g></g></g><g id="XMLID_93_"><g id="XMLID_94_"><g id="XMLID_23_"><path id="XMLID_26_" class="st0" d="M205.1 19l17.3 47.4-7.5 2.7L196.6 19z"/></g></g></g><g id="XMLID_101_"><g id="XMLID_102_"><g id="XMLID_10_"><path id="XMLID_18_" class="st0" d="M239.9 19l-26 71.4h-8.6l26-71.4z"/></g></g></g><g id="XMLID_1_"><g id="XMLID_3_"><g id="XMLID_9_"><path id="XMLID_119_" class="st1" d="M173.2.1l-3.6 10.1-8.6-.1 3.7-10z"/></g></g></g></svg>