<?xml version="1.0" encoding="utf-8"?>
<!-- Generator: Adobe Illustrator 19.0.0, SVG Export Plug-In . SVG Version: 6.00 Build 0)  -->
<svg version="1.1" id="图层_2" xmlns="http://www.w3.org/2000/svg" xmlns:xlink="http://www.w3.org/1999/xlink" x="0px" y="0px"
	 viewBox="0 0 239.9 90.4" style="enable-background:new 0 0 239.9 90.4;" xml:space="preserve">
<style type="text/css">
	.st0{fill:#3D8CEA;}
	.st1{fill:#0862BC;}
</style>
<g id="XMLID_5_">
	<g id="XMLID_6_">
		<g id="XMLID_149_">
			<path id="XMLID_2_" class="st0" d="M8.5,18.9l17.5,48.2l-8.5,0L0,18.9c0,0,0.1,0,0.1,0L8.5,18.9z"/>
		</g>
		<g id="XMLID_162_">
		</g>
	</g>
</g>
<g id="XMLID_12_">
	<g id="XMLID_13_">
		<g id="XMLID_140_">
			<polygon id="XMLID_136_" class="st1" points="43.5,18.9 26,67.1 17.5,67.1 35,18.9 			"/>
		</g>
		<g id="XMLID_141_">
		</g>
	</g>
</g>
<g id="XMLID_28_">
	<g id="XMLID_29_">
		<g id="XMLID_125_">
			<polygon id="XMLID_139_" class="st0" points="43.5,18.9 61,67.1 52.5,67.1 35,18.9 			"/>
		</g>
		<g id="XMLID_132_">
		</g>
	</g>
</g>
<g id="XMLID_20_">
	<g id="XMLID_21_">
		<g id="XMLID_112_">
			<polygon id="XMLID_123_" class="st1" points="78.5,18.9 61,67.1 52.4,67.1 69.9,18.9 			"/>
		</g>
		<g id="XMLID_114_">
		</g>
	</g>
</g>
<g id="XMLID_36_">
	<g id="XMLID_37_">
		<g id="XMLID_99_">
			<polygon id="XMLID_107_" class="st0" points="79.1,36.5 89.3,64.5 81.7,67.3 74.8,48.2 			"/>
		</g>
		<g id="XMLID_106_">
		</g>
	</g>
</g>
<g id="XMLID_44_">
	<g id="XMLID_45_">
		<g id="XMLID_90_">
			<polygon id="XMLID_98_" class="st1" points="107.7,19 81.8,90.3 73.2,90.3 99.2,19 			"/>
		</g>
		<g id="XMLID_91_">
		</g>
	</g>
</g>
<g id="XMLID_53_">
	<g id="XMLID_54_">
		<g id="XMLID_76_">
			<polygon id="XMLID_83_" class="st1" points="148.8,18.9 116.3,18.9 113.4,27 145.9,26.9 			"/>
		</g>
		<g id="XMLID_82_">
		</g>
	</g>
</g>
<g id="XMLID_61_">
	<g id="XMLID_62_">
		<g id="XMLID_67_">
			<polygon id="XMLID_75_" class="st0" points="143.6,0 119.1,67.2 110.6,67.2 135,0 			"/>
		</g>
		<g id="XMLID_74_">
		</g>
	</g>
</g>
<g id="XMLID_69_">
	<g id="XMLID_70_">
		<g id="XMLID_58_">
			<polygon id="XMLID_66_" class="st1" points="166.2,19 148.6,67.2 140.1,67.2 157.6,19 			"/>
		</g>
		<g id="XMLID_59_">
		</g>
	</g>
</g>
<g id="XMLID_77_">
	<g id="XMLID_78_">
		<g id="XMLID_49_">
			<polygon id="XMLID_51_" class="st0" points="185.6,19.9 168.4,67.2 159.9,67.2 177.4,19 183.2,19 			"/>
		</g>
		<g id="XMLID_50_">
		</g>
	</g>
</g>
<g id="XMLID_85_">
	<g id="XMLID_86_">
		<g id="XMLID_33_">
			<polygon id="XMLID_41_" class="st1" points="186.4,19 203.9,67.2 195.4,67.2 177.8,19 			"/>
		</g>
		<g id="XMLID_34_">
		</g>
	</g>
</g>
<g id="XMLID_93_">
	<g id="XMLID_94_">
		<g id="XMLID_23_">
			<polygon id="XMLID_26_" class="st0" points="205.1,19 222.4,66.4 214.9,69.1 196.6,19 			"/>
		</g>
		<g id="XMLID_25_">
		</g>
	</g>
</g>
<g id="XMLID_101_">
	<g id="XMLID_102_">
		<g id="XMLID_10_">
			<polygon id="XMLID_18_" class="st1" points="239.9,19 213.9,90.4 205.3,90.4 231.3,19 			"/>
		</g>
		<g id="XMLID_17_">
		</g>
	</g>
</g>
<g id="XMLID_1_">
	<g id="XMLID_3_">
		<g id="XMLID_9_">
			<polygon id="XMLID_119_" class="st0" points="173.2,0.1 169.6,10.2 161,10.1 164.7,0.1 			"/>
		</g>
		<g id="XMLID_122_">
		</g>
	</g>
</g>
</svg>
